Normalized EMG Linear Envelopes
nRows=285
nColumns=4

endheader
time	 med_gas_r	  soleus_r	 tib_ant_r	
2.39501	  0.056082	  0.091857	  0.051757	
2.42827	  0.055816	  0.093172	  0.051249	
2.46154	  0.055470	  0.094533	  0.050815	
2.4948	  0.055069	  0.095768	  0.050294	
2.52806	  0.054797	  0.096871	  0.049648	
2.56133	  0.054794	  0.097894	  0.048867	
2.59459	  0.055306	  0.098926	  0.047861	
2.62786	  0.056449	  0.099929	  0.046516	
2.66112	  0.057994	  0.100704	  0.045061	
2.69438	  0.059424	  0.100984	  0.043769	
2.72765	  0.060076	  0.100675	  0.042740	
2.76091	  0.060063	  0.099883	  0.042096	
2.79418	  0.060075	  0.098581	  0.041852	
2.82744	  0.060518	  0.096876	  0.041909	
2.8607	  0.061579	  0.095142	  0.042368	
2.89397	  0.063190	  0.093501	  0.043368	
2.92723	  0.065125	  0.092061	  0.044959	
2.9605	  0.066805	  0.090856	  0.046899	
2.99376	  0.067518	  0.089795	  0.048689	
3.02702	  0.067202	  0.088946	  0.050030	
3.06029	  0.066147	  0.088398	  0.051142	
3.09355	  0.064786	  0.088400	  0.052031	
3.12682	  0.063577	  0.088913	  0.052391	
3.16008	  0.062756	  0.089490	  0.052078	
3.19334	  0.062459	  0.089581	  0.051457	
3.22661	  0.062493	  0.088855	  0.050915	
3.25987	  0.062520	  0.087356	  0.050401	
3.29314	  0.062434	  0.085625	  0.049771	
3.3264	  0.062458	  0.084105	  0.049173	
3.35966	  0.062776	  0.082980	  0.048875	
3.39293	  0.063415	  0.082205	  0.049029	
3.42619	  0.064177	  0.081664	  0.049700	
3.45946	  0.064718	  0.081498	  0.050906	
3.49272	  0.064600	  0.081792	  0.052377	
3.52598	  0.063836	  0.082603	  0.053626	
3.55925	  0.062736	  0.083997	  0.054483	
3.59251	  0.061620	  0.085896	  0.054903	
3.62578	  0.060833	  0.088201	  0.055084	
3.65904	  0.060511	  0.090805	  0.055253	
3.6923	  0.060572	  0.093415	  0.055538	
3.72557	  0.060820	  0.095611	  0.055769	
3.75883	  0.061118	  0.096973	  0.055782	
3.7921	  0.061358	  0.097116	  0.055637	
3.82536	  0.061508	  0.095823	  0.055275	
3.85862	  0.061689	  0.093672	  0.054589	
3.89189	  0.062131	  0.091846	  0.053674	
3.92515	  0.062798	  0.090859	  0.052793	
3.95842	  0.063658	  0.090842	  0.052157	
3.99168	  0.064632	  0.092005	  0.052038	
4.02494	  0.065540	  0.094154	  0.052397	
4.05821	  0.066236	  0.096557	  0.052712	
4.09147	  0.066594	  0.098649	  0.052486	
4.12474	  0.066761	  0.099964	  0.051587	
4.158	  0.066863	  0.100212	  0.050018	
4.19126	  0.066958	  0.099794	  0.048063	
4.22453	  0.067180	  0.099223	  0.046176	
4.25779	  0.067603	  0.098636	  0.044584	
4.29106	  0.068297	  0.097961	  0.043165	
4.32432	  0.069134	  0.097041	  0.041859	
4.35758	  0.069623	  0.095756	  0.040971	
4.39085	  0.069692	  0.094275	  0.040754	
4.42411	  0.069461	  0.093012	  0.041496	
4.45738	  0.068980	  0.092474	  0.044157	
4.49064	  0.068807	  0.093118	  0.050206	
4.5239	  0.069371	  0.095193	  0.061196	
4.55717	  0.071226	  0.099035	  0.078934	
4.59043	  0.074640	  0.104884	  0.105124	
4.6237	  0.079324	  0.112791	  0.140502	
4.65696	  0.084762	  0.122494	  0.184329	
4.69022	  0.090243	  0.133382	  0.234312	
4.72349	  0.095408	  0.144503	  0.288393	
4.75675	  0.100416	  0.155283	  0.347262	
4.79002	  0.105013	  0.165609	  0.413275	
4.82328	  0.108532	  0.175773	  0.488882	
4.85654	  0.110577	  0.185443	  0.569490	
4.88981	  0.110584	  0.192962	  0.643399	
4.92307	  0.109081	  0.197726	  0.700300	
4.95634	  0.106868	  0.200562	  0.739760	
4.9896	  0.104423	  0.202116	  0.766112	
5.02286	  0.102161	  0.202404	  0.782015	
5.05613	  0.100727	  0.201561	  0.793209	
5.08939	  0.100182	  0.199999	  0.802697	
5.12266	  0.100012	  0.198299	  0.809819	
5.15592	  0.100137	  0.196649	  0.812103	
5.18918	  0.101331	  0.195288	  0.808160	
5.22245	  0.104568	  0.194518	  0.798267	
5.25571	  0.110011	  0.193997	  0.782732	
5.28898	  0.117348	  0.193454	  0.760745	
5.32224	  0.125755	  0.193100	  0.729975	
5.3555	  0.134279	  0.192717	  0.691360	
5.38877	  0.141579	  0.191591	  0.650337	
5.42203	  0.145616	  0.189443	  0.608810	
5.4553	  0.145509	  0.186375	  0.569474	
5.48856	  0.143875	  0.183300	  0.533169	
5.52182	  0.143459	  0.180527	  0.497268	
5.55509	  0.145875	  0.177086	  0.460205	
5.58835	  0.152143	  0.172868	  0.426317	
5.62162	  0.162493	  0.168606	  0.400107	
5.65488	  0.175276	  0.164801	  0.383181	
5.68814	  0.188122	  0.161904	  0.377107	
5.72141	  0.199322	  0.160783	  0.381198	
5.75467	  0.206092	  0.161656	  0.393563	
5.78794	  0.208116	  0.164172	  0.411142	
5.8212	  0.208411	  0.168269	  0.431722	
5.85446	  0.209949	  0.173390	  0.453937	
5.88773	  0.214763	  0.178459	  0.477328	
5.92099	  0.222132	  0.181940	  0.499013	
5.95426	  0.229415	  0.182509	  0.514803	
5.98752	  0.234419	  0.180111	  0.523977	
6.02078	  0.236937	  0.175639	  0.525994	
6.05405	  0.239907	  0.170147	  0.521197	
6.08731	  0.245731	  0.165006	  0.510526	
6.12058	  0.253965	  0.161566	  0.495707	
6.15384	  0.260535	  0.159881	  0.478970	
6.1871	  0.261942	  0.159250	  0.464060	
6.22037	  0.260119	  0.158619	  0.454098	
6.25363	  0.260670	  0.156636	  0.449000	
6.2869	  0.266549	  0.153349	  0.446624	
6.32016	  0.277459	  0.149795	  0.443202	
6.35342	  0.291115	  0.146820	  0.438944	
6.38669	  0.303327	  0.144893	  0.435661	
6.41995	  0.311418	  0.144204	  0.435330	
6.45322	  0.315731	  0.144855	  0.439714	
6.48648	  0.318965	  0.146710	  0.447467	
6.51974	  0.322445	  0.149756	  0.454899	
6.55301	  0.325637	  0.153751	  0.458760	
6.58627	  0.328528	  0.158259	  0.461447	
6.61954	  0.333837	  0.163008	  0.465754	
6.6528	  0.342220	  0.168185	  0.472524	
6.68606	  0.352574	  0.173707	  0.481937	
6.71933	  0.362526	  0.179525	  0.492324	
6.75259	  0.371549	  0.186016	  0.501173	
6.78586	  0.382271	  0.192876	  0.507348	
6.81912	  0.393926	  0.199534	  0.511866	
6.85238	  0.402999	  0.205596	  0.516375	
6.88565	  0.409369	  0.211656	  0.521876	
6.91891	  0.415257	  0.218071	  0.527933	
6.95218	  0.420397	  0.225398	  0.535181	
6.98544	  0.421498	  0.234140	  0.543097	
7.0187	  0.415689	  0.243712	  0.550693	
7.05197	  0.405771	  0.252162	  0.558160	
7.08523	  0.395971	  0.257976	  0.566234	
7.1185	  0.387540	  0.260560	  0.576388	
7.15176	  0.378609	  0.260666	  0.586996	
7.18502	  0.368573	  0.258957	  0.595428	
7.21829	  0.360040	  0.255872	  0.601028	
7.25155	  0.353459	  0.252862	  0.603266	
7.28482	  0.346004	  0.250857	  0.601876	
7.31808	  0.337120	  0.249211	  0.597432	
7.35134	  0.329457	  0.246400	  0.590654	
7.38461	  0.324341	  0.241715	  0.583047	
7.41787	  0.321190	  0.235500	  0.574359	
7.45114	  0.318443	  0.229383	  0.565533	
7.4844	  0.316646	  0.225259	  0.558603	
7.51766	  0.317801	  0.223885	  0.554789	
7.55093	  0.323033	  0.224955	  0.554717	
7.58419	  0.331149	  0.227144	  0.555439	
7.61746	  0.338337	  0.229259	  0.556185	
7.65072	  0.341799	  0.229414	  0.557485	
7.68398	  0.343949	  0.226600	  0.558309	
7.71725	  0.347849	  0.221542	  0.557308	
7.75051	  0.352704	  0.215436	  0.552588	
7.78378	  0.356132	  0.208694	  0.542844	
7.81704	  0.356052	  0.201718	  0.528790	
7.8503	  0.354107	  0.195097	  0.513673	
7.88357	  0.353896	  0.189034	  0.502573	
7.91683	  0.357857	  0.184426	  0.499484	
7.9501	  0.367173	  0.182428	  0.503935	
7.98336	  0.381102	  0.183425	  0.512993	
8.01662	  0.397395	  0.187334	  0.525693	
8.04989	  0.412642	  0.192965	  0.542325	
8.08315	  0.421765	  0.199232	  0.563356	
8.11642	  0.424842	  0.205881	  0.587987	
8.14968	  0.424902	  0.212201	  0.613351	
8.18294	  0.422951	  0.218060	  0.635747	
8.21621	  0.418938	  0.223043	  0.654208	
8.24947	  0.412487	  0.227339	  0.667184	
8.28274	  0.405425	  0.231968	  0.673316	
8.316	  0.401193	  0.237673	  0.674129	
8.34926	  0.400284	  0.244381	  0.670772	
8.38253	  0.401138	  0.250774	  0.668710	
8.41579	  0.402808	  0.255385	  0.672430	
8.44906	  0.404279	  0.258436	  0.681756	
8.48232	  0.403489	  0.259690	  0.692942	
8.51558	  0.398940	  0.259894	  0.699372	
8.54885	  0.388537	  0.260260	  0.697295	
8.58211	  0.373669	  0.260958	  0.690867	
8.61538	  0.358765	  0.261795	  0.683431	
8.64864	  0.347067	  0.263360	  0.677454	
8.6819	  0.340750	  0.266043	  0.673498	
8.71517	  0.339102	  0.269599	  0.673136	
8.74843	  0.339493	  0.273640	  0.678632	
8.7817	  0.339825	  0.277189	  0.690575	
8.81496	  0.337514	  0.279729	  0.709199	
8.84822	  0.332722	  0.281461	  0.734925	
8.88149	  0.323826	  0.281198	  0.766341	
8.91475	  0.312071	  0.278528	  0.795763	
8.94802	  0.301841	  0.274182	  0.815950	
8.98128	  0.297969	  0.268821	  0.822333	
9.01454	  0.301619	  0.262445	  0.817277	
9.04781	  0.310841	  0.255473	  0.805095	
9.08107	  0.323562	  0.249277	  0.788310	
9.11434	  0.337000	  0.244677	  0.769130	
9.1476	  0.350023	  0.241476	  0.749576	
9.18086	  0.359394	  0.239208	  0.733595	
9.21413	  0.364549	  0.238185	  0.720644	
9.24739	  0.368246	  0.238338	  0.709968	
9.28066	  0.370383	  0.239003	  0.703608	
9.31392	  0.371388	  0.239388	  0.703532	
9.34718	  0.371608	  0.239918	  0.710765	
9.38045	  0.369382	  0.240596	  0.721775	
9.41371	  0.364567	  0.240661	  0.734196	
9.44698	  0.360498	  0.240503	  0.747187	
9.48024	  0.360162	  0.241094	  0.759979	
9.5135	  0.364281	  0.242135	  0.772004	
9.54677	  0.372089	  0.242808	  0.780234	
9.58003	  0.380707	  0.242826	  0.780184	
9.6133	  0.387295	  0.242857	  0.769572	
9.64656	  0.392118	  0.242997	  0.751028	
9.67982	  0.395632	  0.242515	  0.730716	
9.71309	  0.397262	  0.241930	  0.716937	
9.74635	  0.397905	  0.241980	  0.713648	
9.77962	  0.396785	  0.242700	  0.723910	
9.81288	  0.392378	  0.242739	  0.745185	
9.84614	  0.385324	  0.241034	  0.770707	
9.87941	  0.379325	  0.237677	  0.795957	
9.91267	  0.376895	  0.232541	  0.816695	
9.94594	  0.377924	  0.226659	  0.836935	
9.9792	  0.382385	  0.221861	  0.857969	
10.0125	  0.390476	  0.219445	  0.877174	
10.0457	  0.398856	  0.219723	  0.894137	
10.079	  0.403548	  0.221722	  0.905600	
10.1123	  0.404018	  0.223897	  0.911563	
10.1455	  0.401438	  0.225080	  0.909936	
10.1788	  0.396798	  0.224926	  0.897095	
10.212	  0.392570	  0.223717	  0.870259	
10.2453	  0.390362	  0.221995	  0.824626	
10.2786	  0.390149	  0.220130	  0.763646	
10.3118	  0.390381	  0.218588	  0.690492	
10.3451	  0.387070	  0.216752	  0.612122	
10.3784	  0.379619	  0.213709	  0.535300	
10.4116	  0.369846	  0.208925	  0.464719	
10.4449	  0.358505	  0.202495	  0.406157	
10.4782	  0.347266	  0.195458	  0.363210	
10.5114	  0.335969	  0.189294	  0.337220	
10.5447	  0.323947	  0.184807	  0.329179	
10.578	  0.313811	  0.182330	  0.338725	
10.6112	  0.306547	  0.181712	  0.362305	
10.6445	  0.301987	  0.182428	  0.394036	
10.6777	  0.301350	  0.183444	  0.426030	
10.711	  0.305263	  0.183649	  0.449400	
10.7443	  0.312771	  0.182586	  0.458386	
10.7775	  0.321953	  0.179633	  0.449992	
10.8108	  0.331328	  0.174728	  0.422403	
10.8441	  0.341339	  0.168087	  0.379672	
10.8773	  0.353019	  0.159814	  0.330619	
10.9106	  0.365507	  0.150921	  0.283260	
10.9439	  0.378699	  0.142768	  0.242288	
10.9771	  0.390358	  0.136054	  0.209371	
11.0104	  0.397824	  0.130944	  0.184118	
11.0436	  0.400008	  0.127649	  0.165271	
11.0769	  0.398377	  0.126015	  0.151622	
11.1102	  0.396065	  0.125744	  0.142587	
11.1434	  0.395642	  0.126360	  0.137270	
11.1767	  0.396370	  0.126981	  0.133624	
11.21	  0.397627	  0.126533	  0.129141	
11.2432	  0.398206	  0.124460	  0.123087	
11.2765	  0.398624	  0.121473	  0.116386	
11.3098	  0.400122	  0.118498	  0.109687	
11.343	  0.402125	  0.115714	  0.102813	
11.3763	  0.403524	  0.113212	  0.095736	
11.4096	  0.403521	  0.111015	  0.089295	
11.4428	  0.401138	  0.108778	  0.083471	
11.4761	  0.395391	  0.105877	  0.078046	
11.5093	  0.388137	  0.102554	  0.073208	
11.5426	  0.380015	  0.099336	  0.069180	
11.5759	  0.371823	  0.096777	  0.065580	
11.6091	  0.364183	  0.095178	  0.062373	
11.6424	  0.356994	  0.094487	  0.059749	
11.6757	  0.350523	  0.094686	  0.057637	
11.7089	  0.344654	  0.095758	  0.056049	
11.7422	  0.339154	  0.097565	  0.054945	
11.7755	  0.334183	  0.099771	  0.054107	
11.8087	  0.330318	  0.102036	  0.053697	
11.842	  0.327235	  0.104285	  0.053635	
